<svg id="DW_Architektur" xmlns="http://www.w3.org/2000/svg" viewBox="0 0 575.11 296.73"><defs><style>.cls-1,.cls-2,.cls-3{fill:none;}.cls-1{stroke:#a7a9ac;}.cls-1,.cls-2,.cls-3,.cls-4,.cls-7{stroke-miterlimit:10;}.cls-2{stroke:#bcbec0;}.cls-3,.cls-4,.cls-7{stroke:#808285;}.cls-4{fill:#f1f2f2;}.cls-5{font-size:10px;font-family:HelveticaNeue, Helvetica Neue;}.cls-5,.cls-8{fill:#231f20;}.cls-6{fill:#808285;}.cls-7{fill:#e6e7e8;}.cls-8{font-size:11px;font-family:HelveticaNeue-Medium, Helvetica Neue;font-weight:500;}.cls-9{letter-spacing:-0.1em;}.cls-10{letter-spacing:0em;}.cls-11{letter-spacing:-0.02em;}</style></defs><rect class="cls-1" x="213.78" y="0.5" width="360.83" height="295.73"/><rect class="cls-2" x="232.31" y="86.33" width="320.25" height="166.85"/><rect class="cls-2" x="238.78" y="114.74" width="204.85" height="90.29"/><rect class="cls-2" x="453.77" y="114.74" width="90.36" height="90.29"/><path class="cls-3" d="M22,28.84" transform="translate(-13.48 -9.87)"/><line class="cls-3" x1="86.5" y1="42.97" x2="8.5" y2="42.97"/><line class="cls-3" x1="8.5" y1="18.97" x2="86.5" y2="18.97"/><ellipse class="cls-4" cx="8.5" cy="30.97" rx="8" ry="12"/><path class="cls-3" d="M100,28.84c4.42,0,8,5.38,8,12s-3.58,12-8,12" transform="translate(-13.48 -9.87)"/><text class="cls-5" transform="translate(21.71 34.11) scale(1.02 1)">Apache Kafka</text><line class="cls-3" x1="498.95" y1="188.23" x2="498.95" y2="217.53"/><polygon class="cls-6" points="495.96 216.66 498.95 221.84 501.94 216.66 495.96 216.66"/><rect class="cls-7" x="233.43" y="262.92" width="320.25" height="23.65"/><text class="cls-5" transform="translate(368.28 277.82) scale(1.02 1)">SAP HANA</text><line class="cls-3" x1="339.58" y1="243.45" x2="339.59" y2="262.92"/><text class="cls-8" transform="translate(465.01 14.94)">SAP Cloud Platform<tspan x="26.08" y="13.2">Cloud Foundry</tspan></text><rect class="cls-7" x="116.97" y="12.5" width="71.13" height="36.95"/><text class="cls-5" transform="translate(126.47 28.31) scale(1.02 1)">SAP Cloud <tspan x="2.31" y="12">Connector</tspan></text><rect class="cls-7" x="302.03" y="12.5" width="71.13" height="36.95"/><text class="cls-5" transform="translate(309.54 28.31) scale(1.02 1)">Connectivity<tspan x="11.21" y="12">Service</tspan></text><line class="cls-3" x1="187.95" y1="30.97" x2="297.72" y2="30.97"/><polygon class="cls-6" points="296.85 33.97 302.03 30.97 296.85 27.98 296.85 33.97"/><rect class="cls-7" x="238.78" y="221.84" width="204.85" height="23.65"/><text class="cls-5" transform="translate(309.04 236.56) scale(1.02 1)">HDI Container</text><line class="cls-3" x1="481.63" y1="233.66" x2="443.21" y2="233.66"/><line class="cls-3" x1="313.55" y1="194.11" x2="313.55" y2="217.53"/><polygon class="cls-6" points="310.56 216.66 313.55 221.84 316.54 216.66 310.56 216.66"/><rect class="cls-7" x="343.97" y="122.29" width="41.89" height="36.95"/><text class="cls-5" transform="translate(349.97 138.1) scale(1.02 1)">Speed<tspan x="2.22" y="12">Layer</tspan></text><rect class="cls-7" x="293.31" y="122.29" width="41.89" height="36.95"/><text class="cls-5" transform="translate(300.73 138.1) scale(1.02 1)">Batch<tspan x="0.84" y="12">Layer</tspan></text><rect class="cls-7" x="478.01" y="151.28" width="41.89" height="36.95"/><text class="cls-5" transform="translate(490.99 167.09) scale(1.02 1)">UI5<tspan x="-1.48" y="12">App</tspan></text><line class="cls-3" x1="313.55" y1="170.6" x2="313.55" y2="159.24"/><line class="cls-3" x1="94.11" y1="30.97" x2="112.67" y2="30.97"/><polygon class="cls-6" points="111.79 33.97 116.97 30.97 111.79 27.98 111.79 33.97"/><text class="cls-8" transform="translate(421.49 102.68)">Multi-<tspan class="cls-9" x="29.34" y="0">T</tspan><tspan class="cls-10" x="34.76" y="0">arget-Application</tspan></text><text class="cls-5" transform="translate(407.64 130.62)">kafka-<tspan x="-16.66" y="12">p</tspan><tspan class="cls-11" x="-10.73" y="12">r</tspan><tspan x="-7.58" y="12">ocessor</tspan></text><text class="cls-5" transform="translate(492.59 130.62)">dw-config</text><rect class="cls-7" x="453.77" y="221.84" width="90.36" height="23.65"/><text class="cls-5" transform="translate(469.29 236.56) scale(1.02 1)">OData Service</text><rect class="cls-7" x="289.69" y="170.46" width="48.34" height="23.65"/><text class="cls-5" transform="translate(298.86 186.16) scale(1.02 1)">Queue</text><line class="cls-3" x1="364.91" y1="159.89" x2="364.91" y2="217.53"/><polygon class="cls-6" points="361.92 216.66 364.91 221.84 367.9 216.66 361.92 216.66"/><line class="cls-3" x1="337.84" y1="49.45" x2="315.58" y2="118.19"/><polygon class="cls-6" points="313.01 116.44 314.26 122.29 318.7 118.28 313.01 116.44"/><line class="cls-3" x1="337.84" y1="49.45" x2="363.28" y2="118.25"/><polygon class="cls-6" points="360.18 118.47 364.78 122.29 365.79 116.39 360.18 118.47"/></svg>