<?xml version="1.0" encoding="utf-8"?>
<!-- Generator: Adobe Illustrator 24.2.1, SVG Export Plug-In . SVG Version: 6.00 Build 0)  -->
<svg version="1.1" xmlns="http://www.w3.org/2000/svg" xmlns:xlink="http://www.w3.org/1999/xlink" x="0px" y="0px"
	 viewBox="0 0 600 254.6" style="enable-background:new 0 0 600 254.6;" xml:space="preserve">
<style type="text/css">
	.st0{display:none;}
	.st1{display:inline;fill:#E6E7E8;stroke:#808285;stroke-miterlimit:10;}
	.st2{display:inline;}
	.st3{font-family:'HelveticaNeue';}
	.st4{font-size:10px;}
	.st5{display:inline;fill:none;stroke:#808285;stroke-miterlimit:10;}
	.st6{display:inline;fill:#F1F2F2;stroke:#808285;stroke-miterlimit:10;}
	.st7{fill:none;stroke:#808285;stroke-miterlimit:10;}
	.st8{fill:#808285;}
	.st9{font-family:'HelveticaNeue-Light';}
	.st10{font-size:9px;}
	.st11{fill:none;stroke:#58595B;stroke-miterlimit:10;}
	.st12{fill:#58595B;}
	.st13{fill:#E6E7E8;stroke:#808285;stroke-miterlimit:10;}
	.st14{fill:#939598;}
	.st15{fill:none;stroke:#939598;stroke-width:2;stroke-miterlimit:10;}
	.st16{fill:#010101;}
	.st17{fill:#C85D5D;}
	.st18{opacity:0.2;}
	.st19{fill:#231F20;}
	.st20{fill:#E1E0D1;}
	.st21{fill:#515E73;}
	.st22{opacity:0.6;fill:#020202;enable-background:new    ;}
	.st23{opacity:0.45;fill:#020202;enable-background:new    ;}
	.st24{opacity:0.8;fill:#020202;enable-background:new    ;}
	.st25{fill:#F7941F;}
	.st26{fill:#FFFFFF;}
	.st27{display:inline;fill:none;stroke:#ED1C24;stroke-miterlimit:10;stroke-dasharray:12;}
	.st28{display:inline;fill:#ED1C24;}
	.st29{display:inline;fill:#FFFFFF;}
	.st30{font-family:'HelveticaNeue-Medium';}
	.st31{font-size:11px;}
	.st32{display:inline;fill:#A7A9AC;}
	.st33{font-family:'HelveticaNeue-Italic';}
	.st34{fill:#F1F2F2;stroke:#808285;stroke-miterlimit:10;}
	.st35{fill:#A7A9AC;}
	.st36{fill:none;stroke:#A7A9AC;stroke-miterlimit:10;}
</style>
<g id="Lambda_x5F_for_x5F_us" class="st0">
	<rect x="308.8" y="128.5" class="st1" width="151.6" height="33.7"/>
	<rect x="11.8" y="133.5" class="st1" width="81.6" height="23.7"/>
	<text transform="matrix(1.0186 0 0 1 23.1571 149.2789)" class="st2 st3 st4">Input Stream</text>
	<path class="st5" d="M134.7,133.1"/>
	<line class="st5" x1="236.7" y1="157.1" x2="134.7" y2="157.1"/>
	<line class="st5" x1="134.7" y1="133.1" x2="236.7" y2="133.1"/>
	<ellipse class="st6" cx="134.7" cy="145.1" rx="8" ry="12"/>
	<path class="st5" d="M236.7,133.1c4.4,0,8,5.4,8,12c0,6.6-3.6,12-8,12"/>
	<text transform="matrix(1.0186 0 0 1 145.8628 148.2563)" class="st2 st3 st4">Data Ingestion Layer</text>
	<g class="st2">
		<g>
			<line class="st7" x1="93.4" y1="145.3" x2="122.4" y2="145.3"/>
			<g>
				<polygon class="st8" points="121.6,148.3 126.7,145.3 121.6,142.3 				"/>
			</g>
		</g>
	</g>
	<rect x="259.2" y="75.2" class="st1" width="81.6" height="23.7"/>
	<text transform="matrix(1.0186 0 0 1 271.229 90.9756)" class="st2 st3 st4">Speed Layer</text>
	<rect x="259.5" y="191.5" class="st1" width="81.6" height="23.7"/>
	<text transform="matrix(1.0186 0 0 1 272.9816 207.3249)" class="st2 st3 st4">Batch Layer</text>
	<text transform="matrix(1 0 0 1 275.584 229.5244)" class="st2"><tspan x="0" y="0" class="st9 st10">- Transformations</tspan><tspan x="0" y="10.8" class="st9 st10">- Enrichments</tspan><tspan x="0" y="21.6" class="st9 st10">- Aggregations</tspan><tspan x="0" y="32.4" class="st9 st10">- Processing</tspan><tspan x="0" y="43.2" class="st9 st10">- Training</tspan><tspan x="0" y="54" class="st9 st10">- ...</tspan></text>
	<g class="st2">
		<g>
			<polyline class="st11" points="185.7,133.1 185.7,87 254.9,87 			"/>
			<g>
				<polygon class="st12" points="254,90 259.2,87 254,84 				"/>
			</g>
		</g>
	</g>
	<g class="st2">
		<g>
			<polyline class="st11" points="185.7,157.1 185.7,203.3 254.9,203.3 			"/>
			<g>
				<polygon class="st12" points="254,206.2 259.2,203.3 254,200.3 				"/>
			</g>
		</g>
	</g>
	<rect x="373.8" y="133.5" class="st1" width="81.6" height="23.7"/>
	<text transform="matrix(1.0186 0 0 1 383.5101 149.2789)" class="st2 st3 st4">Serving Layer</text>
	<g class="st2">
		<g>
			<polyline class="st11" points="414.6,124.2 414.6,87 341.1,87 			"/>
			<g>
				<polygon class="st12" points="417.6,123.3 414.6,128.5 411.6,123.3 				"/>
			</g>
		</g>
	</g>
	<g class="st2">
		<g>
			<polyline class="st11" points="414.6,166.4 414.6,203.3 341.2,203.3 			"/>
			<g>
				<polygon class="st12" points="411.6,167.3 414.6,162.1 417.6,167.3 				"/>
			</g>
		</g>
	</g>
	<g class="st2">
		<rect x="507.1" y="121.7" class="st13" width="81.6" height="45"/>
		<text transform="matrix(1.0186 0 0 1 519.187 141.6601)"><tspan x="0" y="0" class="st3 st4">Presentation</tspan><tspan x="15.8" y="12" class="st3 st4">Layer</tspan></text>
		<rect x="535" y="166.7" class="st14" width="26.2" height="11.6"/>
		<line class="st15" x1="527.1" y1="178.3" x2="569.6" y2="178.3"/>
	</g>
	<g class="st2">
		<g>
			<line class="st7" x1="455.9" y1="145.3" x2="502.7" y2="145.3"/>
			<g>
				<polygon class="st8" points="501.9,148.3 507.1,145.3 501.9,142.3 				"/>
			</g>
		</g>
	</g>
	<text transform="matrix(1.0186 0 0 1 318.5022 149.2273)" class="st2 st3 st4">Data Lake</text>
</g>
<g id="Konzeptionelle_x5F_Arhcitektur" class="st0">
	<rect x="308.2" y="109.1" class="st1" width="151.6" height="84.4"/>
	<rect x="312.7" y="164.8" class="st1" width="56.2" height="23.7"/>
	<g class="st2">
		<rect x="59.3" y="60.7" class="st13" width="71.1" height="23.7"/>
		<text transform="matrix(1.0186 0 0 1 65.756 76.47)" class="st3 st4">Data Fetcher</text>
	</g>
	<path class="st5" d="M189.2,136.2"/>
	<line class="st5" x1="267.2" y1="160.2" x2="189.2" y2="160.2"/>
	<line class="st5" x1="189.2" y1="136.2" x2="267.2" y2="136.2"/>
	<ellipse class="st6" cx="189.2" cy="148.2" rx="8" ry="12"/>
	<path class="st5" d="M267.2,136.2c4.4,0,8,5.4,8,12s-3.6,12-8,12"/>
	<text transform="matrix(1.0186 0 0 1 205.6747 151.2893)" class="st2 st3 st4">Data Stream</text>
	<g class="st2">
		<g>
			<line class="st7" x1="161.8" y1="148" x2="176.6" y2="148"/>
			<g>
				<polygon class="st8" points="175.7,151 180.9,148 175.7,145 				"/>
			</g>
		</g>
	</g>
	<rect x="373.2" y="164.8" class="st1" width="81.6" height="23.7"/>
	<text transform="matrix(1.0186 0 0 1 382.9323 180.6133)" class="st2 st3 st4">Serving Layer</text>
	<g class="st2">
		<rect x="506.5" y="153" class="st13" width="81.6" height="45"/>
		<text transform="matrix(1.0186 0 0 1 518.6093 172.9945)"><tspan x="0" y="0" class="st3 st4">Presentation</tspan><tspan x="15.8" y="12" class="st3 st4">Layer</tspan></text>
		<rect x="534.4" y="198" class="st14" width="26.2" height="11.6"/>
		<line class="st15" x1="526.5" y1="209.6" x2="569.1" y2="209.6"/>
	</g>
	<g class="st2">
		<g>
			<line class="st7" x1="455.4" y1="176.6" x2="502.2" y2="176.6"/>
			<g>
				<polygon class="st8" points="501.3,179.6 506.5,176.6 501.3,173.6 				"/>
			</g>
		</g>
	</g>
	<text transform="matrix(1.0186 0 0 1 316.9244 180.5617)" class="st2 st3 st4">Data Lake</text>
	<text transform="matrix(1.0186 0 0 1 346.2321 125.0312)" class="st2 st3 st4">Data Warehouse</text>
	<rect x="312.7" y="136.2" class="st1" width="142.1" height="23.7"/>
	<text transform="matrix(1.0186 0 0 1 330.3087 151.2571)" class="st2 st3 st4">Data Stream Consumer</text>
	<line class="st5" x1="340.8" y1="159.8" x2="340.8" y2="164.5"/>
	<line class="st5" x1="368.9" y1="176.6" x2="373.2" y2="176.6"/>
	<g class="st2">
		<g>
			<line class="st7" x1="275" y1="148" x2="304" y2="148"/>
			<g>
				<polygon class="st8" points="303.1,151 308.3,148 303.1,145 				"/>
			</g>
		</g>
	</g>
	<g class="st2">
		<g>
			<path class="st16" d="M42.5,210.2c-0.2-0.1-0.5-0.1-0.7,0.1l-11.5,8.3l-7.4-6.9c-0.3-0.2-0.6-0.2-0.9,0l-6.2,5.5
				c-0.1,0.1-0.2,0.3-0.2,0.5v7.6c0,0.4,0.3,0.7,0.7,0.7h25.8c0.4,0,0.7-0.3,0.7-0.7v-14.4C42.8,210.6,42.7,210.4,42.5,210.2z
				 M18.6,224.6H17V218l1.6-1.4C18.6,216.5,18.6,224.6,18.6,224.6z M21.4,224.6h-1.5v-9.2l1.5-1.4C21.4,214,21.4,224.6,21.4,224.6z
				 M24.3,224.6h-1.5v-11.3l1.5,1.4V224.6z M27.1,224.6h-1.5V216l1.5,1.4V224.6z M30,224.6h-1.6v-5.9l1.3,1.3
				c0.1,0.1,0.1,0.1,0.2,0.1L30,224.6L30,224.6z M32.9,224.6h-1.6v-5.1l1.6-1.1V224.6z M35.8,224.6h-1.6v-7.2l1.6-1.1L35.8,224.6
				L35.8,224.6z M38.7,224.6h-1.6v-9.3l1.6-1.1V224.6z M41.5,224.6H40v-11.4l1.5-1.1V224.6z"/>
			<path class="st16" d="M46,204.4c-0.1-0.2-0.3-0.3-0.5-0.3l-4.2,0.1c-0.3,0-0.5,0.2-0.6,0.5c-0.1,0.3,0.1,0.6,0.3,0.7l1,0.5
				l-11.6,8.3l-7.9-7.2c-0.4-0.4-1-0.4-1.4,0l-6.7,6c-0.4,0.4-0.5,1-0.1,1.5c0.4,0.4,1,0.5,1.5,0.1l6-5.3l7.8,7.1
				c0.2,0.2,0.4,0.3,0.7,0.3c0.2,0,0.4-0.1,0.6-0.2l12.2-8.7l0.1,0.9c0,0.3,0.2,0.5,0.5,0.6c0,0,0.1,0,0.1,0c0.2,0,0.5-0.1,0.6-0.4
				l1.7-3.8C46.2,204.8,46.1,204.6,46,204.4z"/>
		</g>
		<g>
		</g>
		<g>
		</g>
		<g>
		</g>
		<g>
		</g>
		<g>
		</g>
		<g>
		</g>
		<g>
		</g>
		<g>
		</g>
		<g>
		</g>
		<g>
		</g>
		<g>
		</g>
		<g>
		</g>
		<g>
		</g>
		<g>
		</g>
		<g>
		</g>
	</g>
	<g class="st2">
		<g id="Layer_1_2_">
			<g>
				<circle class="st17" cx="29.8" cy="170" r="16.4"/>
			</g>
			<g class="st18">
				<path class="st19" d="M40,179.2c0,1.1-0.9,2-2,2H21.6c-1.1,0-2-0.9-2-2v-14.3c0-1.1,0.9-2,2-2h16.4c1.1,0,2,0.9,2,2V179.2z"/>
			</g>
			<g>
				<path class="st20" d="M40,178.2c0,1.1-0.9,2-2,2H21.6c-1.1,0-2-0.9-2-2v-14.3c0-1.1,0.9-2,2-2h16.4c1.1,0,2,0.9,2,2V178.2z"/>
			</g>
			<g class="st18">
				<path class="st19" d="M40,177.2c0,1.1-0.9,2-2,2H21.6c-1.1,0-2-0.9-2-2v-14.3c0-1.1,0.9-2,2-2h16.4c1.1,0,2,0.9,2,2V177.2z"/>
			</g>
			<g>
				<path class="st20" d="M40,176.2c0,1.1-0.9,2-2,2H21.6c-1.1,0-2-0.9-2-2v-14.3c0-1.1,0.9-2,2-2h16.4c1.1,0,2,0.9,2,2V176.2z"/>
			</g>
			<g>
				<rect x="21.6" y="165.9" class="st21" width="6.1" height="6.1"/>
			</g>
			<g>
				<rect x="31.8" y="167.5" class="st21" width="6.1" height="0.5"/>
			</g>
			<g>
				<rect x="31.8" y="166.5" class="st21" width="6.1" height="0.5"/>
			</g>
			<g>
				<rect x="29.8" y="165.9" class="st21" width="1.5" height="2"/>
			</g>
			<g>
				<rect x="29.8" y="169" class="st21" width="8.2" height="0.5"/>
			</g>
			<g>
				<rect x="29.8" y="170" class="st21" width="8.2" height="0.5"/>
			</g>
			<g>
				<rect x="29.8" y="171.1" class="st21" width="8.2" height="0.5"/>
			</g>
			<g>
				<rect x="29.8" y="172.1" class="st21" width="8.2" height="0.5"/>
			</g>
			<g>
				<rect x="31.8" y="173.6" class="st21" width="6.2" height="0.5"/>
			</g>
			<g>
				<rect x="21.6" y="173.6" class="st21" width="6.1" height="0.5"/>
			</g>
			<g>
				<rect x="21.6" y="174.6" class="st21" width="6.1" height="0.5"/>
			</g>
			<g>
				<rect x="21.6" y="175.7" class="st21" width="6.1" height="0.5"/>
			</g>
			<g>
				<rect x="21.6" y="176.7" class="st21" width="6.1" height="0.5"/>
			</g>
			<g>
				<rect x="29.8" y="174.6" class="st21" width="8.2" height="0.5"/>
			</g>
			<g>
				<rect x="29.8" y="175.7" class="st21" width="8.2" height="0.5"/>
			</g>
			<g>
				<rect x="29.8" y="176.7" class="st21" width="8.2" height="0.5"/>
			</g>
			<g>
				<circle class="st20" cx="25.7" cy="168" r="1"/>
			</g>
			<g>
				<rect x="21.6" y="161.9" class="st21" width="16.4" height="2"/>
			</g>
			<g>
				<g>
					<path class="st20" d="M27.2,171.6v-1.2l-0.4-0.4c-0.3-0.3-0.7-0.3-0.9,0l-0.4,0.4l-1-1c-0.5-0.5-1.3-0.5-1.8,0l-0.6,0.6v1.6
						H27.2z"/>
				</g>
			</g>
		</g>
		<g id="Layer_2_2_">
		</g>
	</g>
	<g class="st2">
		<path id="path3078_1_" class="st22" d="M29.3,117.3l-9.8,4.5l9.8,5.8l9.8-5.8L29.3,117.3z"/>
		<path id="path3094_1_" class="st23" d="M19.5,121.7l9.8,5.8v-10.3v-11.8L19.5,121.7z"/>
		<path id="path3110_1_" class="st24" d="M29.3,105.4v11.8v10.3l9.8-5.8L29.3,105.4z"/>
		<path id="path3126_1_" class="st23" d="M19.5,123.6l9.8,13.8v-8L19.5,123.6z"/>
		<path id="path3142_1_" class="st24" d="M29.3,129.4v8l9.8-13.8L29.3,129.4z"/>
	</g>
	<g class="st2">
		<g transform="translate(-289.60744,-317.50471)">
			<path class="st25" d="M335.3,394.5c-2.1,8.6-10.8,13.8-19.4,11.7c-8.6-2.1-13.8-10.8-11.6-19.4c2.1-8.6,10.8-13.8,19.4-11.7
				C332.2,377.2,337.4,385.9,335.3,394.5L335.3,394.5z"/>
			<path class="st26" d="M326.8,388.3c0.3-2.1-1.3-3.3-3.5-4l0.7-2.9l-1.8-0.4l-0.7,2.8c-0.5-0.1-0.9-0.2-1.4-0.3l0.7-2.8l-1.8-0.4
				l-0.7,2.9c-0.4-0.1-0.8-0.2-1.1-0.3l0,0l-2.4-0.6l-0.5,1.9c0,0,1.3,0.3,1.3,0.3c0.7,0.2,0.8,0.6,0.8,1l-0.8,3.3
				c0,0,0.1,0,0.2,0.1c-0.1,0-0.1,0-0.2,0l-1.1,4.6c-0.1,0.2-0.3,0.5-0.8,0.4c0,0-1.3-0.3-1.3-0.3l-0.9,2l2.3,0.6
				c0.4,0.1,0.8,0.2,1.3,0.3l-0.7,2.9l1.8,0.4l0.7-2.9c0.5,0.1,0.9,0.3,1.4,0.4l-0.7,2.9l1.8,0.4l0.7-2.9c3,0.6,5.2,0.3,6.2-2.4
				c0.8-2.2,0-3.4-1.6-4.3C325.7,390.6,326.6,389.9,326.8,388.3L326.8,388.3z M322.8,393.9c-0.5,2.2-4.2,1-5.4,0.7l1-3.9
				C319.5,391.1,323.3,391.7,322.8,393.9L322.8,393.9z M323.3,388.3c-0.5,2-3.6,1-4.5,0.7l0.9-3.5
				C320.6,385.8,323.8,386.2,323.3,388.3z"/>
		</g>
	</g>
	<g class="st2">
		<rect x="59.3" y="109.8" class="st13" width="71.1" height="23.7"/>
		<text transform="matrix(1.0186 0 0 1 65.756 125.6052)" class="st3 st4">Data Fetcher</text>
	</g>
	<g class="st2">
		<rect x="59.3" y="158.7" class="st13" width="71.1" height="23.7"/>
		<text transform="matrix(1.0186 0 0 1 65.756 174.4853)" class="st3 st4">Data Fetcher</text>
	</g>
	<g class="st2">
		<rect x="59.3" y="204.8" class="st13" width="71.1" height="23.7"/>
		<text transform="matrix(1.0186 0 0 1 65.756 220.5964)" class="st3 st4">Data Fetcher</text>
	</g>
	<line class="st5" x1="130.4" y1="73.1" x2="161.8" y2="73.1"/>
	<line class="st5" x1="130.4" y1="122.4" x2="161.8" y2="122.4"/>
	<line class="st5" x1="130.4" y1="172.1" x2="161.8" y2="172.1"/>
	<line class="st5" x1="130.4" y1="218.3" x2="161.8" y2="218.3"/>
	<line class="st5" x1="161.8" y1="73.1" x2="161.8" y2="218.3"/>
	<line class="st27" x1="161.8" y1="26" x2="161.8" y2="274.3"/>
	<line class="st27" x1="287.7" y1="26" x2="287.7" y2="274.3"/>
	<line class="st27" x1="480.9" y1="26" x2="480.9" y2="274.3"/>
	<rect class="st28" width="600" height="25.8"/>
	<text transform="matrix(1 0 0 1 10.7234 16.8183)" class="st29 st30 st31">Data Source + Data Fetcher</text>
	<text transform="matrix(1 0 0 1 195.3424 16.8185)" class="st29 st30 st31">Data Stream</text>
	<text transform="matrix(1 0 0 1 342.7888 16.8185)" class="st29 st30 st31">Data Warehouse</text>
	<text transform="matrix(1 0 0 1 494.9602 16.8185)" class="st29 st30 st31">Analytics Frontend</text>
	<text transform="matrix(1 0 0 1 34.0265 41.1928)" class="st32 st33 st31">ETL + MapReduce</text>
	<text transform="matrix(1 0 0 1 334.6284 41.1929)" class="st32 st33 st31">Persistency + Buffer</text>
	<text transform="matrix(1 0 0 1 512.1226 41.1928)" class="st32 st33 st31">Visualization</text>
	<text transform="matrix(1 0 0 1 195.9899 41.1926)" class="st32 st33 st31">Transmission</text>
</g>
<g id="Technische_x5F_Architektur">
	<g>
		<rect x="19.3" y="60.7" class="st13" width="71.1" height="23.7"/>
		<text transform="matrix(1.0186 0 0 1 25.756 76.47)" class="st3 st4">Data Fetcher</text>
	</g>
	<path class="st7" d="M134.2,136.2"/>
	<line class="st7" x1="212.2" y1="160.2" x2="134.2" y2="160.2"/>
	<line class="st7" x1="134.2" y1="136.2" x2="212.2" y2="136.2"/>
	<ellipse class="st34" cx="134.2" cy="148.2" rx="8" ry="12"/>
	<path class="st7" d="M212.2,136.2c4.4,0,8,5.4,8,12s-3.6,12-8,12"/>
	<text transform="matrix(1.0186 0 0 1 147.3749 151.2893)" class="st3 st4">Apache Kafka</text>
	<g>
		<g>
			<line class="st7" x1="106.8" y1="148" x2="121.6" y2="148"/>
			<g>
				<polygon class="st8" points="120.7,151 125.9,148 120.7,145 				"/>
			</g>
		</g>
	</g>
	<g>
		<rect x="506.5" y="153" class="st13" width="81.6" height="45"/>
		<text transform="matrix(1.0186 0 0 1 515.4061 172.9945)"><tspan x="0" y="0" class="st3 st4">SAP Analytics</tspan><tspan x="18" y="12" class="st3 st4">Cloud</tspan></text>
		<rect x="534.4" y="198" class="st14" width="26.2" height="11.6"/>
		<line class="st15" x1="526.5" y1="209.6" x2="569.1" y2="209.6"/>
	</g>
	<g>
		<g>
			<line class="st7" x1="455.4" y1="180.3" x2="502.2" y2="180.3"/>
			<g>
				<polygon class="st8" points="501.3,183.3 506.5,180.3 501.3,177.3 				"/>
			</g>
		</g>
	</g>
	<rect x="315" y="203.8" class="st13" width="142.1" height="23.7"/>
	<text transform="matrix(1.0186 0 0 1 360.761 218.9361)" class="st3 st4">SAP HANA</text>
	<line class="st7" x1="386" y1="192.1" x2="386" y2="203.8"/>
	<g>
		<g>
			<polyline class="st7" points="220,148 229.9,148 229.9,105.2 			"/>
			<g>
				<polygon class="st8" points="232.8,106.1 229.9,100.9 226.9,106.1 				"/>
			</g>
		</g>
	</g>
	<g>
		<rect x="19.3" y="109.8" class="st13" width="71.1" height="23.7"/>
		<text transform="matrix(1.0186 0 0 1 25.756 125.6052)" class="st3 st4">Data Fetcher</text>
	</g>
	<g>
		<rect x="19.3" y="158.7" class="st13" width="71.1" height="23.7"/>
		<text transform="matrix(1.0186 0 0 1 25.756 174.4853)" class="st3 st4">Data Fetcher</text>
	</g>
	<g>
		<rect x="19.3" y="204.8" class="st13" width="71.1" height="23.7"/>
		<text transform="matrix(1.0186 0 0 1 25.756 220.5964)" class="st3 st4">Data Fetcher</text>
	</g>
	<line class="st7" x1="90.4" y1="73.1" x2="106.1" y2="73.1"/>
	<line class="st7" x1="90.4" y1="122.4" x2="106.1" y2="122.4"/>
	<line class="st7" x1="90.4" y1="172.1" x2="106.1" y2="172.1"/>
	<line class="st7" x1="90.4" y1="218.3" x2="106.1" y2="218.3"/>
	<line class="st7" x1="106.8" y1="73.1" x2="106.8" y2="218.3"/>
	<text transform="matrix(1 0 0 1 29.3182 51.1913)" class="st35 st33 st31">API-based</text>
	<rect x="10.3" y="16.8" class="st36" width="268.7" height="228.3"/>
	<text transform="matrix(1 0 0 1 101.6417 33.0303)" class="st30 st31">Virtual Machine</text>
	<rect x="286.5" y="16.8" class="st36" width="207.3" height="228.3"/>
	<text transform="matrix(1 0 0 1 335.844 32.4723)"><tspan x="0" y="0" class="st30 st31">SAP Cloud Platform</tspan><tspan x="13" y="13.2" class="st30 st31">Cloud Foundry</tspan></text>
	<g>
		<rect x="194" y="63.9" class="st13" width="71.1" height="36.9"/>
		<text transform="matrix(1.0186 0 0 1 203.5436 79.7533)"><tspan x="0" y="0" class="st3 st4">SAP Cloud </tspan><tspan x="2.3" y="12" class="st3 st4">Connector</tspan></text>
	</g>
	<g>
		<rect x="325.9" y="63.3" class="st13" width="71.1" height="36.9"/>
		<text transform="matrix(1.0186 0 0 1 333.3998 79.1349)"><tspan x="0" y="0" class="st3 st4">Connectivity</tspan><tspan x="11.2" y="12" class="st3 st4">Service</tspan></text>
	</g>
	<g>
		<g>
			<line class="st7" x1="265.2" y1="82.4" x2="321.6" y2="82.4"/>
			<g>
				<polygon class="st8" points="320.7,85.4 325.9,82.4 320.7,79.4 				"/>
			</g>
		</g>
	</g>
	<rect x="315.1" y="168.5" class="st13" width="142.1" height="23.7"/>
	<text transform="matrix(1.0186 0 0 1 354.0313 183.5672)" class="st3 st4">HDI Container</text>
	<line class="st7" x1="437" y1="157.1" x2="437" y2="168.5"/>
	<g>
		<g>
			<line class="st7" x1="457.7" y1="145.7" x2="502.7" y2="170.9"/>
			<g>
				<polygon class="st8" points="500.5,173.1 506.5,173 503.4,167.9 				"/>
			</g>
		</g>
	</g>
	<g>
		<rect x="366.2" y="120.2" class="st13" width="41.9" height="36.9"/>
		<text transform="matrix(1.0186 0 0 1 372.2287 135.9584)"><tspan x="0" y="0" class="st3 st4">Speed</tspan><tspan x="2.2" y="12" class="st3 st4">Layer</tspan></text>
	</g>
	<g>
		<rect x="315.6" y="120.2" class="st13" width="41.9" height="36.9"/>
		<text transform="matrix(1.0186 0 0 1 322.9893 135.9584)"><tspan x="0" y="0" class="st3 st4">Batch</tspan><tspan x="0.8" y="12" class="st3 st4">Layer</tspan></text>
	</g>
	<g>
		<rect x="416.1" y="120" class="st13" width="41.9" height="36.9"/>
		<text transform="matrix(1.0186 0 0 1 422.3426 135.8011)"><tspan x="0" y="0" class="st3 st4">OData</tspan><tspan x="-2.3" y="12" class="st3 st4">Service</tspan></text>
	</g>
	<line class="st7" x1="335.8" y1="168.5" x2="335.8" y2="157.1"/>
	<line class="st7" x1="385.8" y1="168.5" x2="385.8" y2="157.1"/>
	<g>
		<g>
			<line class="st7" x1="361.7" y1="100.3" x2="341.3" y2="117.4"/>
			<g>
				<polygon class="st8" points="340.1,114.5 338,120.2 343.9,119.1 				"/>
			</g>
		</g>
	</g>
	<g>
		<g>
			<line class="st7" x1="361.7" y1="100.3" x2="383.8" y2="117.4"/>
			<g>
				<polygon class="st8" points="381.2,119.2 387.2,120 384.9,114.5 				"/>
			</g>
		</g>
	</g>
</g>
</svg>
